<svg fill="none" height="48" viewBox="0 0 40 48" width="40" xmlns="http://www.w3.org/2000/svg"><g clip-rule="evenodd" fill-rule="evenodd"><path d="m4.29111 28.6025c.90712.9019.9071 2.3641-.00003 3.266l-.04646.0462c-.90713.9019-2.37788.9018-3.284994-.0001-.9071177-.9019-.9071038-2.3641.000031-3.266l.046453-.0462c.90714-.9019 2.37788-.9018 3.285.0001z" fill="#a5b4fc"/><path d="m15.2112 29.298c.9055.9035.9028 2.3658-.006 3.266l-6.43424 6.3741c-.90876.9002-2.3795.8976-3.28499-.0059-.90548-.9035-.90282-2.3658.00594-3.266l6.43429-6.3741c.9088-.9002 2.3795-.8976 3.285.0059z" fill="#6366f1"/><path d="m23.9431 40.2706c.7116-1.0613 2.1538-1.348 3.2212-.6405l.1394.0923c1.0674.7075 1.3558 2.1414.6442 3.2026-.7116 1.0613-2.1538 1.3481-3.2212.6406l-.1394-.0924c-1.0674-.7075-1.3558-2.1414-.6442-3.2026z" fill="#a5b4fc"/><path d="m39.2728 28.4638c.9072.9019.9072 2.3641 0 3.266l-3.159 3.1408c-.9072.9019-2.3779.9019-3.285 0s-.9071-2.3641 0-3.266l3.1591-3.1408c.9071-.9019 2.3778-.9019 3.2849 0z" fill="#6366f1"/><g fill="#4f46e5"><path d="m39.3197 16.8473c.9071.9019.9071 2.3642 0 3.266l-23.3446 23.2098c-.9071.9019-2.3779.9019-3.285 0s-.9071-2.3641 0-3.266l23.3446-23.2098c.9071-.9019 2.3778-.9019 3.285 0z"/><path d="m34.905 9.71133c.9072.90187.9072 2.36417 0 3.26607l-13.426 13.3485c-.9071.9019-2.3779.9019-3.285 0s-.9071-2.3642 0-3.2661l13.4261-13.34847c.9071-.90189 2.3778-.90189 3.2849 0z"/><path d="m27.8187 5.18362c.9077.90128.9087 2.36353.0022 3.26603l-17.2588 17.18215c-.90647.9025-2.37721.9035-3.28495.0022-.90773-.9013-.90872-2.3635-.00221-3.266l17.25876-17.18218c.9065-.9025 2.3772-.90348 3.285-.0022z"/></g><path d="m10.7276 10.6841c.9056.9035.9031 2.3657-.0056 3.266l-6.75949 6.6974c-.90869.9003-2.37943.8978-3.28499-.0056-.905563-.9035-.903032-2.3657.005654-3.2661l6.759476-6.6973c.90868-.90034 2.37942-.89783 3.28495.0056z" fill="#6366f1"/><path d="m14.8678 4.00024c1.2828 0 2.3228 1.03397 2.3228 2.30944v.23094c0 1.27546-1.04 2.30943-2.3228 2.30943-1.2829 0-2.3229-1.03397-2.3229-2.30943v-.23094c0-1.27547 1.04-2.30944 2.3229-2.30944z" fill="#a5b4fc"/></g></svg>